<svg
    width='40'
    height='40'
    viewBox="0 0 40 40"
    fill="none"
    xmlns="http://www.w3.org/2000/svg"
  >
    <path
      d="M0 20C0 10.572 0 5.858 2.929 2.929S10.572 0 20 0s14.142 0 17.071 2.929S40 10.572 40 20s0 14.142-2.929 17.071S29.428 40 20 40 5.858 40 2.929 37.071 0 29.428 0 20"
      className="ccustom"
      fill="#243A5A"
    />
    <path
      d="M24 26c.552 0 1.01.452.9.993a5 5 0 0 1-9.8 0c-.11-.54.348-.993.9-.993zm2.102-8.223c-.533.142-.86.7-.59 1.182a4 4 0 1 0 .627-4.754c-.386.395-.215 1.019.263 1.295l.507.293c.772.445.62 1.601-.24 1.832zm-12.204 0c.533.142.86.7.59 1.182a4 4 0 1 1-.626-4.754c.386.395.214 1.019-.264 1.295l-.507.293c-.772.445-.62 1.601.241 1.832z"
      className="ccompli2"
      fill="#0389a1"
    />
  </svg>